<svg width="30" height="30" viewBox="0 0 30 30" fill="none" xmlns="http://www.w3.org/2000/svg">
<circle cx="15" cy="15" r="15" fill="white"/>
<g clip-path="url(#clip0)">
<path d="M27.6065 15.2962C27.6065 14.4222 27.5356 13.5435 27.3845 12.6837H15.2572V17.6347H22.2019C21.9137 19.2315 20.9878 20.6441 19.6319 21.5417V24.7542H23.7751C26.2081 22.5149 27.6065 19.2079 27.6065 15.2962Z" fill="#4285F4"/>
<path d="M15.2572 27.858C18.7248 27.858 21.6491 26.7195 23.7798 24.7542L19.6366 21.5417C18.4839 22.3259 16.9957 22.77 15.2619 22.77C11.9076 22.77 9.06362 20.507 8.04318 17.4646H3.7677V20.7763C5.95032 25.1179 10.3959 27.858 15.2572 27.858Z" fill="#34A853"/>
<path d="M8.03846 17.4647C7.49989 15.8678 7.49989 14.1388 8.03846 12.5419V9.23022H3.7677C1.94413 12.8632 1.94413 17.1434 3.7677 20.7764L8.03846 17.4647Z" fill="#FBBC04"/>
<path d="M15.2572 7.2318C17.0902 7.20346 18.8618 7.8932 20.1893 9.15931L23.8601 5.48854C21.5357 3.30592 18.4508 2.10596 15.2572 2.14375C10.3959 2.14375 5.95032 4.88384 3.7677 9.23018L8.03845 12.5419C9.05418 9.49474 11.9029 7.2318 15.2572 7.2318Z" fill="#EA4335"/>
</g>
<defs>
<clipPath id="clip0">
<rect width="25.7143" height="25.7143" fill="white" transform="translate(2.14288 2.14288)"/>
</clipPath>
</defs>
</svg>
