<svg width="25" height="24" viewBox="0 0 25 24" fill="none" xmlns="http://www.w3.org/2000/svg">
<path d="M12.5 23C18.5751 23 23.5 18.0751 23.5 12C23.5 5.92487 18.5751 1 12.5 1C6.42487 1 1.5 5.92487 1.5 12C1.5 18.0751 6.42487 23 12.5 23Z" stroke="black" stroke-width="2" stroke-linecap="round" stroke-linejoin="round"/>
<path d="M9.29901 8.70004C9.55763 7.96488 10.0681 7.34496 10.74 6.95009C11.4118 6.55522 12.2018 6.41087 12.9699 6.54262C13.738 6.67437 14.4347 7.07372 14.9366 7.66992C15.4385 8.26613 15.7132 9.02072 15.712 9.80004C15.712 12 12.412 13.1 12.412 13.1" stroke="black" stroke-width="2" stroke-linecap="round" stroke-linejoin="round"/>
<path d="M12.5 17.5H12.511" stroke="black" stroke-width="2" stroke-linecap="round" stroke-linejoin="round"/>
</svg>
