<?xml version="1.0" encoding="UTF-8" standalone="no"?>
<svg
   xmlns:dc="http://purl.org/dc/elements/1.1/"
   xmlns:cc="http://creativecommons.org/ns#"
   xmlns:rdf="http://www.w3.org/1999/02/22-rdf-syntax-ns#"
   xmlns:svg="http://www.w3.org/2000/svg"
   xmlns="http://www.w3.org/2000/svg"
   xmlns:sodipodi="http://sodipodi.sourceforge.net/DTD/sodipodi-0.dtd"
   xmlns:inkscape="http://www.inkscape.org/namespaces/inkscape"
   width="500"
   height="500"
   viewBox="0 0 132.29166 132.29167"
   version="1.1"
   id="svg1500"
   inkscape:version="1.0.2 (e86c8708, 2021-01-15)"
   sodipodi:docname="Aman ka logo.svg">
  <defs
     id="defs1494" />
  <sodipodi:namedview
     id="base"
     pagecolor="#ffffff"
     bordercolor="#666666"
     borderopacity="1.0"
     inkscape:pageopacity="0.0"
     inkscape:pageshadow="2"
     inkscape:zoom="0.33280702"
     inkscape:cx="400"
     inkscape:cy="560"
     inkscape:document-units="mm"
     inkscape:current-layer="layer1"
     inkscape:document-rotation="0"
     showgrid="false"
     units="px"
     inkscape:window-width="1252"
     inkscape:window-height="772"
     inkscape:window-x="5"
     inkscape:window-y="0"
     inkscape:window-maximized="0" />
  <metadata
     id="metadata1497">
    <rdf:RDF>
      <cc:Work
         rdf:about="">
        <dc:format>image/svg+xml</dc:format>
        <dc:type
           rdf:resource="http://purl.org/dc/dcmitype/StillImage" />
        <dc:title></dc:title>
      </cc:Work>
    </rdf:RDF>
  </metadata>
  <g
     inkscape:label="Layer 1"
     inkscape:groupmode="layer"
     id="layer1">
    <path
       style="fill:#0166ff;fill-opacity:1;stroke:#0166ff;stroke-width:5.51131;stroke-linecap:round;stroke-miterlimit:4;stroke-dasharray:none;stroke-dashoffset:0;stroke-opacity:1;paint-order:stroke markers fill;stop-color:#000000"
       d="m 45.645424,40.581508 c -2.013185,0.07458 -3.409164,2.565725 -2.285089,4.284665 0.815492,1.458871 3.065251,2.102192 4.294348,0.775637 1.301036,-1.047711 1.399728,-3.211271 0.08645,-4.291488 -0.556292,-0.532408 -1.32029,-0.840215 -2.095601,-0.768814 z"
       id="path1489" />
    <path
       style="fill:#0166ff;fill-opacity:1;stroke:#0166ff;stroke-width:5.51131;stroke-linecap:round;stroke-miterlimit:4;stroke-dasharray:none;stroke-dashoffset:0;stroke-opacity:1;paint-order:stroke markers fill;stop-color:#000000"
       d="m 62.232938,42.893386 c -1.663826,0.04749 -2.657737,1.655716 -3.643797,2.778254 -2.496941,3.272638 -4.226224,7.294811 -7.659691,9.742601 -2.312702,1.585955 -5.353542,1.629698 -7.964634,0.86625 -4.165288,-1.607575 -6.604006,-5.63055 -8.877518,-9.229689 -0.975318,-1.325018 -1.658421,-3.022821 -3.096789,-3.919755 -1.030984,-0.452079 -2.023638,0.563226 -1.979905,1.580654 -0.117986,1.440829 1.025801,2.590423 1.588225,3.825195 3.655419,6.167373 7.701483,12.238331 9.732157,19.188213 1.909927,6.118581 3.01433,12.812493 7.20498,17.899566 0.869879,0.946429 1.704934,2.047982 2.82526,2.686754 0.17114,-0.379273 -0.317579,-0.894843 -0.403502,-1.286876 -2.646401,-4.882888 -3.32388,-10.687926 -2.151728,-16.09344 1.342587,-5.8954 4.981399,-10.908766 8.503635,-15.697145 1.385106,-1.907857 2.855627,-3.753477 4.309411,-5.610786 0.08491,-0.108521 0.169817,-0.217009 0.254482,-0.325498 1.259575,-1.613143 2.50208,-3.238375 3.660756,-4.923939 0.519683,-0.652233 -0.444477,-1.097874 -0.941223,-1.262948 -0.435171,-0.153 -0.897292,-0.243596 -1.360119,-0.217461 z"
       id="path1491"
       sodipodi:nodetypes="scccccccccccccssccss" />
    <path
       style="fill:#0166ff;fill-opacity:1;stroke:#0166ff;stroke-width:5.51131;stroke-linecap:round;stroke-miterlimit:4;stroke-dasharray:none;stroke-dashoffset:0;stroke-opacity:1;paint-order:stroke markers fill;stop-color:#000000"
       d="m 88.076816,40.554135 c -1.380411,0.09113 -2.350416,1.44409 -2.753565,2.654683 -0.288048,2.289974 2.783972,4.065515 4.594119,2.579471 1.100316,-0.916297 1.726519,-2.696102 0.687322,-3.89285 -0.594869,-0.773948 -1.532822,-1.345083 -2.527876,-1.341304 z"
       id="path1493" />
    <path
       style="fill:#0166ff;fill-opacity:1;stroke:#0166ff;stroke-width:5.51131;stroke-linecap:round;stroke-miterlimit:4;stroke-dasharray:none;stroke-dashoffset:0;stroke-opacity:1;paint-order:stroke markers fill;stop-color:#000000"
       d="m 71.638628,42.891664 c -0.797144,0.08896 -1.930018,0.263763 -2.245216,1.109061 1.190899,2.071476 2.84169,3.868303 4.25033,5.80059 4.222319,5.594917 8.939489,11.020949 11.568953,17.603179 1.735787,4.526088 1.895107,9.566893 0.97437,14.29153 -0.462892,2.329938 -1.716138,4.405644 -2.486376,6.612279 0.499922,0.02257 0.881987,-0.65098 1.274328,-0.927852 2.812767,-2.688059 4.849162,-6.118497 5.927337,-9.853012 1.977197,-6.158427 3.05692,-12.685494 6.334265,-18.353734 2.45809,-4.613156 5.495021,-8.911148 7.752001,-13.629348 0.53361,-1.051723 -0.42195,-2.383128 -1.47268,-2.600823 -1.2566,0.454235 -1.89494,1.823163 -2.6806,2.815375 -2.408541,3.612065 -4.499428,7.853907 -8.484983,9.982168 -2.1602,1.059298 -4.741806,1.279117 -7.063583,0.691311 -3.730822,-1.24952 -5.979633,-4.715039 -7.886274,-7.928517 -1.271395,-1.949092 -2.398206,-4.284464 -4.559924,-5.389378 -0.378229,-0.16086 -0.790992,-0.238463 -1.201948,-0.222829 z"
       id="path1495" />
    <path
       style="fill:#ff0000;stroke:none;stroke-width:1.90909;stroke-miterlimit:4;stroke-dasharray:none;stroke-opacity:1"
       d="m 64.904904,91.54407 c -0.624859,-0.09632 -2.01725,-0.436361 -2.796102,-0.682416 -2.681568,-0.84707 -5.118115,-2.603181 -7.143292,-5.148457 -0.906064,-1.138741 -1.888482,-2.994779 -2.380913,-4.498096 -0.464369,-1.41767 -0.615452,-2.32248 -0.664927,-3.982259 -0.03854,-1.292745 -0.02221,-1.585687 0.135443,-2.431386 0.533402,-2.861142 1.651905,-4.91496 4.822285,-8.854697 3.880645,-4.822407 6.159474,-8.147667 8.456578,-12.339846 0.988846,-1.588914 1.293994,-2.766048 1.671914,-2.764727 0.269628,6.86e-4 0.598206,0.67847 1.138815,1.885116 1.873675,4.186411 4.12587,7.7449 7.736119,12.223165 2.707685,3.358653 3.248548,4.094292 4.271283,5.809687 0.948573,1.59097 1.272546,2.432657 1.581443,4.108522 0.302604,1.64177 0.120527,4.069678 -0.455333,6.071258 -1.078234,3.747926 -3.970036,7.219482 -7.539245,9.050838 -1.285137,0.659374 -1.953467,0.895797 -3.751712,1.327158 -0.956975,0.229551 -1.156511,0.248981 -2.813058,0.274197 -0.980664,0.01505 -2.00185,-0.0084 -2.269308,-0.04816 z"
       id="path1505"
       sodipodi:nodetypes="csssccscscssssssscc"
       inkscape:export-xdpi="1500"
       inkscape:export-ydpi="1500" />
    <path
       style="opacity:0.37284;fill:#ffffff;stroke:none;stroke-width:0.923961;stroke-miterlimit:4;stroke-dasharray:none;stroke-opacity:1"
       d="M 56.928046,82.2236 C 56.711375,82.16006 56.254419,81.941795 56.010357,81.785316 55.17007,81.24647 54.61038,80.150201 54.369498,78.571354 c -0.108003,-0.706344 -0.09626,-1.854416 0.02791,-2.782234 0.117117,-0.874946 0.246856,-1.432436 0.571058,-2.453509 0.252583,-0.795318 0.31926,-0.975374 0.553635,-1.494455 0.793139,-1.756077 1.640979,-3.011684 3.655389,-5.413524 2.465706,-2.939966 4.015597,-4.969889 5.75152,-7.532806 0.70271,-0.970541 1.061455,-1.692486 1.204271,-1.689158 0.101967,0.0017 0.08645,0.421211 0.04169,1.166933 -0.155425,2.587163 -0.03811,4.79067 0.403555,7.568858 0.331242,2.083632 0.384008,2.539673 0.416815,3.60143 0.03038,0.984838 -0.02077,1.504621 -0.25013,2.537316 -0.224636,1.011759 -0.795239,2.503723 -1.42684,3.730887 -1.182642,2.297816 -2.994841,4.413569 -4.724624,5.516092 -0.622812,0.396999 -0.924721,0.537893 -1.694707,0.791188 -0.409758,0.134774 -0.489295,0.145309 -1.121742,0.149489 -0.374911,0.0017 -0.756555,-0.01505 -0.849295,-0.04448 z"
       id="path1507"
       sodipodi:nodetypes="csssccscscssssssscc"
       inkscape:export-xdpi="1500"
       inkscape:export-ydpi="1500"
       inkscape:transform-center-x="-2.2068947"
       inkscape:transform-center-y="0.31033959" />
  </g>
</svg>
