<svg width="27" height="22" viewBox="0 0 27 22" fill="none" xmlns="http://www.w3.org/2000/svg">
<path d="M18.9545 20.9999V18.7777C18.9545 17.599 18.4948 16.4685 17.6765 15.635C16.8581 14.8015 15.7482 14.3333 14.5909 14.3333H5.86364C4.70633 14.3333 3.59642 14.8015 2.77808 15.635C1.95974 16.4685 1.5 17.599 1.5 18.7777V20.9999" stroke="#0166FF" stroke-width="2" stroke-linecap="round" stroke-linejoin="round"/>
<path d="M10.2273 9.88889C12.6373 9.88889 14.5909 7.89904 14.5909 5.44444C14.5909 2.98985 12.6373 1 10.2273 1C7.81731 1 5.86365 2.98985 5.86365 5.44444C5.86365 7.89904 7.81731 9.88889 10.2273 9.88889Z" stroke="#0166FF" stroke-width="2" stroke-linecap="round" stroke-linejoin="round"/>
<path d="M25.5 21V18.7778C25.4993 17.793 25.1775 16.8364 24.5851 16.0581C23.9928 15.2798 23.1634 14.724 22.2273 14.4778" stroke="#0166FF" stroke-width="2" stroke-linecap="round" stroke-linejoin="round"/>
<path d="M17.8636 1.14453C18.8023 1.38931 19.6342 1.94531 20.2283 2.72488C20.8225 3.50444 21.1449 4.46323 21.1449 5.45009C21.1449 6.43694 20.8225 7.39573 20.2283 8.1753C19.6342 8.95486 18.8023 9.51086 17.8636 9.75564" stroke="#0166FF" stroke-width="2" stroke-linecap="round" stroke-linejoin="round"/>
</svg>
